# xmcd
# Track frame offsets:
# 150
# 11598
# 26372
# 36184
# 45119
# 57512
# 74759
# 88422
# 103963
# 119450
# 132154
# 152178
# 167632
# 183859
# 194343
#
# Disc length: 2849 seconds
# Revision: 0
# Processed by: cddbd v1.5.2PL0 Copyright (c) Steve Scherf et al.
# Submitted via: VisiTrax 2.11.2.271 - For more info visit www.synapsa.com
#
DISCID=cf0b1f0f
DTITLE=The Beggars - Australian Songbook
DYEAR=2011
DGENRE=Country
TTITLE0=A World of our own
TTITLE1=Little Boy Lost
TTITLE2=The Wild One [Real wild Child]
TTITLE3=The Fatal Wedding
TTITLE4=Ive Been a Fool Too Long
TTITLE5=Auctioneer
TTITLE6=Along The Road To Gundagai
TTITLE7=Way Out West
TTITLE8=To Her Door
TTITLE9=A Pub With No Beer
TTITLE10=Waltzing Matilda
TTITLE11=Suvla Bay
TTITLE12=The Whale
TTITLE13=Ive Been Everywhere
TTITLE14=I'll Be Gone
EXTD=
EXTT0=
EXTT1=
EXTT2=
EXTT3=
EXTT4=
EXTT5=
EXTT6=
EXTT7=
EXTT8=
EXTT9=
EXTT10=
EXTT11=
EXTT12=
EXTT13=
EXTT14=
PLAYORDER=
